<?xml version="1.0" encoding="UTF-8" standalone="no"?>
<svg
   xmlns:dc="http://purl.org/dc/elements/1.1/"
   xmlns:cc="http://creativecommons.org/ns#"
   xmlns:rdf="http://www.w3.org/1999/02/22-rdf-syntax-ns#"
   xmlns:svg="http://www.w3.org/2000/svg"
   xmlns="http://www.w3.org/2000/svg"
   xmlns:sodipodi="http://sodipodi.sourceforge.net/DTD/sodipodi-0.dtd"
   xmlns:inkscape="http://www.inkscape.org/namespaces/inkscape"
   sodipodi:docname="sc-apps-virtualdesktopbar.svg"
   inkscape:version="1.0.2 (e86c870879, 2021-01-15)"
   id="svg8"
   version="1.1"
   viewBox="0 0 67.733332 67.733336"
   height="256"
   width="256">
  <defs
     id="defs2">
    <rect
       x="12.404414"
       y="255.21922"
       width="42.897686"
       height="11.485123"
       id="rect43" />
  </defs>
  <sodipodi:namedview
     inkscape:document-rotation="0"
     inkscape:snap-center="true"
     inkscape:window-maximized="1"
     inkscape:window-y="54"
     inkscape:window-x="0"
     inkscape:window-height="2104"
     inkscape:window-width="3836"
     units="px"
     showgrid="false"
     inkscape:current-layer="g853"
     inkscape:document-units="mm"
     inkscape:cy="159.51659"
     inkscape:cx="146.88014"
     inkscape:zoom="4.0000001"
     inkscape:pageshadow="2"
     inkscape:pageopacity="0.0"
     borderopacity="1.0"
     bordercolor="#666666"
     pagecolor="#ffffff"
     id="base" />
  <metadata
     id="metadata5">
    <rdf:RDF>
      <cc:Work
         rdf:about="">
        <dc:format>image/svg+xml</dc:format>
        <dc:type
           rdf:resource="http://purl.org/dc/dcmitype/StillImage" />
        <dc:title />
      </cc:Work>
    </rdf:RDF>
  </metadata>
  <g
     transform="translate(0,-229.26665)"
     id="layer1"
     inkscape:groupmode="layer"
     inkscape:label="Layer 1">
    <g
       transform="matrix(0.95703125,0,0,0.95703125,1.4552083,11.306509)"
       id="g852">
      <g
         id="g853">
        <rect
           style="fill:#31363b;fill-opacity:1;stroke:#eff0f1;stroke-width:0.276463;stroke-linecap:round;stroke-linejoin:bevel;stroke-miterlimit:4;stroke-dasharray:none;stroke-opacity:1;paint-order:stroke markers fill"
           id="rect815"
           width="65.065269"
           height="65.065269"
           x="1.3340304"
           y="230.60068"
           rx="1.9212186"
           ry="1.9212188" />
        <rect
           style="fill:#3ba9e3;fill-opacity:1;stroke:none;stroke-width:0.15068;stroke-miterlimit:4;stroke-dasharray:none;stroke-opacity:1;paint-order:stroke markers fill"
           id="rect819"
           width="51.77013"
           height="2.0877774"
           x="7.9816012"
           y="268.96832" />
        <path
           d="m 15.807157,256.06255 h -1.014818 l -2.354897,1.66534 0.520419,0.75461 1.717384,-1.20998 v 7.49404 h 1.131912 z"
           style="font-style:normal;font-variant:normal;font-weight:normal;font-stretch:normal;font-size:12.3888px;line-height:0.85;font-family:'Fira Sans Condensed';-inkscape-font-specification:'Fira Sans Condensed, ';white-space:pre;fill:#ffffff;fill-opacity:1;stroke:none;stroke-width:1.05018"
           id="path909" />
        <path
           d="m 18.285897,258.64636 c -0.433407,0 -0.722344,0.3445 -0.722344,0.73346 0,0.40006 0.288937,0.73345 0.722344,0.73345 0.444519,0 0.733456,-0.33339 0.733456,-0.73345 0,-0.38896 -0.288937,-0.73346 -0.733456,-0.73346 z m 0,4.10068 c -0.433407,0 -0.722344,0.3334 -0.722344,0.73346 0,0.38896 0.288937,0.73346 0.722344,0.73346 0.444519,0 0.733456,-0.3445 0.733456,-0.73346 0,-0.40006 -0.288937,-0.73346 -0.733456,-0.73346 z"
           style="font-style:normal;font-variant:normal;font-weight:normal;font-stretch:normal;font-size:12.3888px;line-height:0.85;font-family:'Fira Sans Condensed';-inkscape-font-specification:'Fira Sans Condensed, ';white-space:pre;fill:#ffffff;fill-opacity:1;stroke:none;stroke-width:0.897018"
           id="path911" />
        <path
           d="m 27.763744,257.91003 h -1.079869 l -1.027828,6.02386 -1.040838,-6.02386 H 23.28814 l -1.079869,6.02386 -1.001807,-6.02386 h -1.131911 l 1.353089,6.85653 h 1.496205 l 0.988796,-5.78967 1.001807,5.78967 h 1.522226 z"
           style="font-style:normal;font-variant:normal;font-weight:normal;font-stretch:normal;font-size:12.3888px;line-height:0.85;font-family:'Fira Sans Condensed';-inkscape-font-specification:'Fira Sans Condensed, ';white-space:pre;fill:#ffffff;fill-opacity:1;stroke:none;stroke-width:1.05018"
           id="path913" />
        <path
           d="m 31.967898,257.76693 c -0.728587,0 -1.275028,0.46837 -1.600289,1.44415 l -0.104084,-1.30105 h -0.988796 v 6.85653 h 1.144921 v -4.02024 c 0.2472,-1.249 0.689556,-1.8605 1.418143,-1.8605 0.195157,0 0.325262,0.026 0.494398,0.0651 l 0.195157,-1.10589 c -0.169136,-0.0521 -0.351283,-0.078 -0.55945,-0.078 z"
           style="font-style:normal;font-variant:normal;font-weight:normal;font-stretch:normal;font-size:12.3888px;line-height:0.85;font-family:'Fira Sans Condensed';-inkscape-font-specification:'Fira Sans Condensed, ';white-space:pre;fill:#ffffff;fill-opacity:1;stroke:none;stroke-width:1.05018"
           id="path915" />
        <path
           d="m 34.824424,255.02171 -1.144921,0.13011 v 9.61474 h 1.144921 z m 3.447777,2.88832 h -1.196963 l -2.185761,3.10952 2.302855,3.74701 h 1.301048 l -2.393928,-3.81207 z"
           style="font-style:normal;font-variant:normal;font-weight:normal;font-stretch:normal;font-size:12.3888px;line-height:0.85;font-family:'Fira Sans Condensed';-inkscape-font-specification:'Fira Sans Condensed, ';white-space:pre;fill:#ffffff;fill-opacity:1;stroke:none;stroke-width:1.05018"
           id="path917" />
        <path
           d="m 41.48324,257.76693 c -1.288037,0 -2.18576,0.80664 -2.18576,1.8735 0,0.91074 0.494398,1.50921 1.782435,1.95157 1.118901,0.37731 1.418143,0.65052 1.418143,1.34008 0,0.68956 -0.481388,1.09288 -1.222986,1.09288 -0.624502,0 -1.170942,-0.26021 -1.626308,-0.65052 l -0.611493,0.65052 c 0.53343,0.52042 1.275026,0.89773 2.263823,0.89773 1.262016,0 2.380917,-0.67655 2.380917,-2.05566 0,-1.14492 -0.676545,-1.67835 -1.925551,-2.09469 -0.988796,-0.33827 -1.301047,-0.59848 -1.301047,-1.17094 0,-0.58547 0.403325,-0.94977 1.053849,-0.94977 0.546439,0 1.001806,0.19517 1.509215,0.55945 l 0.481387,-0.67655 c -0.546439,-0.49439 -1.183954,-0.7676 -2.016624,-0.7676 z"
           style="font-style:normal;font-variant:normal;font-weight:normal;font-stretch:normal;font-size:12.3888px;line-height:0.85;font-family:'Fira Sans Condensed';-inkscape-font-specification:'Fira Sans Condensed, ';white-space:pre;fill:#ffffff;fill-opacity:1;stroke:none;stroke-width:1.05018"
           id="path919" />
        <path
           d="m 47.742081,257.76693 c -0.754607,0 -1.340079,0.37729 -1.769425,1.05384 l -0.07806,-0.91074 H 44.89279 v 9.61475 l 1.144921,-0.14311 v -3.2266 c 0.390315,0.49439 0.897723,0.76762 1.535237,0.76762 1.509215,0 2.315865,-1.40513 2.315865,-3.59089 0,-2.26383 -0.702566,-3.56487 -2.146729,-3.56487 z m -0.416336,6.219 c -0.546439,0 -0.975786,-0.31225 -1.288037,-0.80665 v -3.47379 c 0.312251,-0.53343 0.780629,-1.02784 1.392122,-1.02784 0.83267,0 1.249006,0.75461 1.249006,2.65415 0,1.89952 -0.50741,2.65413 -1.353091,2.65413 z"
           style="font-style:normal;font-variant:normal;font-weight:normal;font-stretch:normal;font-size:12.3888px;line-height:0.85;font-family:'Fira Sans Condensed';-inkscape-font-specification:'Fira Sans Condensed, ';white-space:pre;fill:#ffffff;fill-opacity:1;stroke:none;stroke-width:1.05018"
           id="path921" />
        <path
           d="m 53.459382,257.76693 c -1.626309,0 -2.654137,1.34007 -2.654137,3.62991 0,2.28985 1.014817,3.52585 2.667148,3.52585 0.689555,0 1.288037,-0.28624 1.808456,-0.75461 l -0.53343,-0.70257 c -0.416334,0.31225 -0.767617,0.49439 -1.262015,0.49439 -0.884713,0 -1.457174,-0.67653 -1.457174,-2.58908 0,-1.89952 0.559451,-2.68015 1.470184,-2.68015 0.481388,0 0.845682,0.18214 1.249005,0.49439 l 0.53343,-0.68955 c -0.55945,-0.52042 -1.118901,-0.72858 -1.821467,-0.72858 z"
           style="font-style:normal;font-variant:normal;font-weight:normal;font-stretch:normal;font-size:12.3888px;line-height:0.85;font-family:'Fira Sans Condensed';-inkscape-font-specification:'Fira Sans Condensed, ';white-space:pre;fill:#ffffff;fill-opacity:1;stroke:none;stroke-width:1.05018"
           id="path923" />
      </g>
    </g>
  </g>
</svg>
